<?xml version="1.0" standalone="no"?><!DOCTYPE svg PUBLIC "-//W3C//DTD SVG 1.1//EN" "http://www.w3.org/Graphics/SVG/1.1/DTD/svg11.dtd"><svg t="1531406791465" class="icon" style="" viewBox="0 0 1024 1024" version="1.1" xmlns="http://www.w3.org/2000/svg" p-id="11431" xmlns:xlink="http://www.w3.org/1999/xlink" width="200" height="200"><defs><style type="text/css"></style></defs><path d="M999.75168 695.45984c-2.33472-12.6976-14.62272-25.64096-27.36128-28.63104l-9.54368-2.08896a94.86336 94.86336 0 0 1-64.83968-112.76288l2.94912-8.88832c3.85024-12.288-1.024-29.4912-11.01824-37.96992 0 0-8.88832-7.61856-34.11968-22.03648-25.1904-14.41792-36.0448-18.432-36.0448-18.432-12.288-4.46464-29.40928-0.2048-38.33856 9.33888l-6.5536 7.20896a94.0032 94.0032 0 0 1-65.08544 25.8048 93.7984 93.7984 0 0 1-65.24928-26.05056l-6.38976-6.7584c-8.88832-9.54368-26.05056-13.76256-38.33856-9.33888 0 0-11.0592 4.05504-36.2496 18.432-25.23136 14.62272-34.11968 22.28224-34.11968 22.28224-9.95328 8.27392-14.82752 25.1904-11.0592 37.6832l2.78528 9.13408a95.0272 95.0272 0 0 1-65.29024 112.96768l-9.09312 2.12992c-12.4928 2.94912-24.9856 15.68768-27.32032 28.59008 0 0-2.12992 11.4688-2.12992 40.50944s2.12992 40.46848 2.12992 40.46848c2.29376 12.94336 14.62272 25.64096 27.32032 28.59008l8.88832 2.12992a94.86336 94.86336 0 0 1 65.536 112.96768l-2.58048 8.88832c-3.80928 12.288 1.06496 29.4912 11.0592 37.96992 0 0 8.84736 7.61856 34.07872 22.03648 25.23136 14.62272 36.0448 18.432 36.0448 18.432 12.288 4.46464 29.45024 0.2048 38.33856-9.33888l6.38976-6.7584a94.74048 94.74048 0 0 1 130.53952 0l6.3488 6.7584c8.92928 9.54368 26.09152 13.80352 38.37952 9.33888 0 0 11.01824-4.01408 36.2496-18.432 25.1904-14.62272 34.11968-22.03648 34.11968-22.03648 9.95328-8.27392 14.82752-25.43616 11.01824-37.96992l-2.78528-9.09312a94.45376 94.45376 0 0 1 10.19904-69.30432 94.208 94.208 0 0 1 55.296-43.4176l8.92928-2.17088c12.4928-2.94912 24.9856-15.64672 27.32032-28.59008 0 0 2.12992-11.4688 2.12992-40.46848-0.65536-29.696-2.53952-41.12384-2.53952-41.12384z m-290.16064 157.2864a116.44928 116.44928 0 1 1 0-232.93952 116.44928 116.44928 0 1 1 0 232.93952zM568.9344 417.792a325.632 325.632 0 0 0-83.47648 49.9712 347.66848 347.66848 0 0 0-65.65888 71.4752 330.46528 330.46528 0 0 0-58.04032 188.416c0 30.96576 4.01408 60.57984 12.0832 88.8832 8.02816 28.2624 19.16928 54.8864 33.46432 79.872h-24.08448c-17.28512 0-37.35552-0.57344-60.29312-1.76128-22.9376-1.2288-46.57152-2.8672-70.98368-4.9152a2876.12928 2876.12928 0 0 1-72.78592-7.168 1677.47584 1677.47584 0 0 1-65.61792-8.47872c-19.6608-2.94912-36.33152-5.9392-50.01216-8.92928-13.68064-2.94912-22.3232-5.9392-25.88672-8.92928-6.5536-4.75136-11.4688-19.49696-14.7456-44.19584-3.2768-24.69888-1.92512-56.40192 4.01408-95.10912 2.37568-14.86848 7.29088-27.07456 14.7456-36.61824 7.41376-9.50272 16.50688-17.69472 27.2384-24.576 10.69056-6.79936 22.60992-12.288 35.71712-16.46592 13.1072-4.17792 26.46016-8.192 40.1408-12.0832 13.7216-3.85024 26.95168-8.02816 39.7312-12.4928 12.82048-4.46464 24.576-9.95328 35.30752-16.50688 12.4928-7.7824 22.15936-15.36 29.04064-22.77376 6.84032-7.45472 11.75552-14.7456 14.7456-21.87264 2.94912-7.168 4.42368-14.58176 4.42368-22.3232 0-7.7824-0.28672-16.384-0.86016-25.92768-1.2288-13.68064-5.98016-24.576-14.336-32.5632a473.4976 473.4976 0 0 0-27.648-24.576 58.9824 58.9824 0 0 1-12.94336-17.408 222.33088 222.33088 0 0 1-10.24-22.77376 1554.432 1554.432 0 0 1-8.97024-27.68896 41.00096 41.00096 0 0 1-12.4928-6.22592 81.42848 81.42848 0 0 1-11.63264-12.53376 70.4512 70.4512 0 0 1-10.69056-23.18336 78.76608 78.76608 0 0 1-3.56352-27.68896c0.57344-8.35584 2.37568-15.7696 5.3248-22.3232 2.41664-6.5536 6.26688-12.82048 11.63264-18.75968 0-22.60992 1.18784-45.2608 3.56352-67.87072 2.37568-19.0464 6.5536-39.60832 12.4928-61.60384 5.98016-22.03648 15.1552-41.69728 27.68896-58.9824 11.8784-16.62976 24.69888-30.18752 38.42048-40.59136a182.92736 182.92736 0 0 1 42.84416-24.576 192.1024 192.1024 0 0 1 44.2368-12.04224A299.8272 299.8272 0 0 1 383.1808 0.77824c17.24416 0 34.36544 1.92512 51.32288 5.77536 16.95744 3.8912 32.89088 9.09312 47.80032 15.64672 14.86848 6.5536 28.09856 13.96736 39.7312 22.3232 11.59168 8.31488 20.6848 16.67072 27.2384 24.9856 15.48288 19.0464 26.78784 40.05888 33.91488 62.95552 7.12704 22.9376 12.20608 44.81024 15.1552 65.65888 2.99008 23.79776 4.5056 47.9232 4.5056 72.33536a31.1296 31.1296 0 0 1 9.8304 11.59168c2.37568 4.17792 4.3008 9.54368 5.77536 16.05632 1.51552 6.5536 1.6384 14.62272 0.45056 24.1664-1.18784 13.06624-3.6864 23.3472-7.5776 30.76096a58.9824 58.9824 0 0 1-12.94336 17.408 45.056 45.056 0 0 1-16.9984 9.8304c-1.18784 3.56352-2.37568 7.45472-3.56352 11.63264l-4.46464 12.4928c-1.18784 4.17792-2.6624 8.6016-4.46464 13.39392z" p-id="11432"></path></svg>