<?xml version="1.0" standalone="no"?><!DOCTYPE svg PUBLIC "-//W3C//DTD SVG 1.1//EN" "http://www.w3.org/Graphics/SVG/1.1/DTD/svg11.dtd"><svg t="1527389382364" class="icon" style="" viewBox="0 0 1024 1024" version="1.1" xmlns="http://www.w3.org/2000/svg" p-id="3265" xmlns:xlink="http://www.w3.org/1999/xlink" width="200" height="200"><defs><style type="text/css"></style></defs><path d="M859.104 160l-345.6-128-348.8 128c-22.4 3.2-41.6 22.4-41.6 48v460.8c0 28.8 64 108.8 121.6 163.2 76.8 70.4 252.8 153.6 262.4 156.8h6.4c6.4-3.2 185.6-86.4 262.4-156.8 57.6-54.4 121.6-134.4 121.6-163.2V208c3.2-22.4-16-44.8-38.4-48z m-243.2 419.2c16 0 32 16 32 35.2 0 19.2-12.8 35.2-32 35.2h-70.4v99.2c0 16-16 32-32 32s-32-12.8-32-32v-224a134.4 134.4 0 0 1-99.2-131.2c0-73.6 60.8-134.4 134.4-134.4s134.4 60.8 134.4 134.4c0 64-41.6 115.2-99.2 131.2v57.6l64-3.2z" p-id="3266"></path><path d="M587.104 390.4c0-41.6-35.2-76.8-76.8-76.8s-76.8 35.2-76.8 76.8c0 41.6 35.2 76.8 76.8 76.8s76.8-32 76.8-76.8z" p-id="3267"></path></svg>