<?xml version="1.0" standalone="no"?><!DOCTYPE svg PUBLIC "-//W3C//DTD SVG 1.1//EN" "http://www.w3.org/Graphics/SVG/1.1/DTD/svg11.dtd"><svg t="1531372423375" class="icon" style="" viewBox="0 0 1024 1024" version="1.1" xmlns="http://www.w3.org/2000/svg" p-id="13338" xmlns:xlink="http://www.w3.org/1999/xlink" width="128" height="128"><defs><style type="text/css"></style></defs><path d="M850.3 446c29.6 0 59.2 4.2 84.6 16.9V234.5c0-63.4-50.8-118.4-118.4-118.4h-698C55 116.1 0 166.8 0 234.5v440c0 63.4 50.8 118.4 118.4 118.4h207.3l97.3 97.3c21.2 21.2 59.2 21.2 84.6 0l97.3-97.3H643c-16.9-33.8-29.6-71.9-29.6-110 4.2-135.3 110-236.9 236.9-236.9zM499.2 674.5c-8.5 8.5-21.2 12.7-38.1 12.7-12.7 0-25.4-4.2-33.8-12.7-8.5-8.5-12.7-21.2-12.7-33.8 0-12.7 4.2-25.4 12.7-33.8 8.5-8.5 21.1-12.7 33.8-12.7 12.7 0 25.4 4.2 38.1 12.7 8.5 8.5 12.7 21.1 12.7 33.8 0 12.6-4.3 25.3-12.7 33.8z m93-249.6c-4.2 8.5-25.4 25.4-55 50.8-12.7 8.5-21.1 21.2-25.4 29.6-4.2 4.2-4.2 12.7-4.2 21.1-4.2 16.9-16.9 29.6-38.1 29.6-21.2 0-42.3-21.1-38.1-42.3 0-12.7 4.2-21.2 8.5-29.6 8.5-16.9 33.8-42.3 76.1-80.4l8.5-8.5c12.7-12.7 16.9-29.6 16.9-46.5 0-21.2-8.5-38.1-16.9-50.8-12.7-12.7-29.6-16.9-50.8-16.9-29.6 0-46.5 8.5-59.2 25.4-8.5 8.5-12.7 21.2-12.7 33.8-4.2 16.9-16.9 29.6-33.8 29.6-21.1 0-42.3-21.1-33.8-42.3 4.2-25.4 16.9-50.8 38.1-67.7 29.6-25.4 63.5-42.3 114.2-42.3 42.3 0 76.1 12.7 101.5 33.8 25.4 21.1 38.1 55 38.1 93.1-12.7 33.9-21.2 59.3-33.9 80.5z m0 0" p-id="13339"></path><path d="M1019.5 653.3c0-8.5-8.5-16.9-16.9-16.9h-4.2c-12.7-4.2-25.4-12.7-29.6-25.4-8.5-12.7-8.5-25.4-4.2-42.3v-4.2c4.2-8.5 0-16.9-8.5-21.1 0 0-4.2-4.2-21.1-12.7-12.7-8.5-21.2-12.7-21.2-12.7-8.5-4.2-16.9 0-21.1 4.2l-4.2 4.2c-8.5 8.5-21.2 16.9-38.1 16.9-16.9 0-29.6-4.2-38.1-16.9l-4.2-4.2c-4.2-4.2-16.9-8.5-21.2-4.2 0 0-8.5 4.2-21.1 12.7-12.7 8.5-21.1 12.7-21.1 12.7-4.2 4.2-8.5 12.7-8.5 21.1v4.2c4.2 12.7 0 29.6-4.2 42.3-8.5 12.7-16.9 21.2-33.8 25.4H694c-8.5 0-12.7 8.5-16.9 16.9v50.8c0 8.5 8.5 16.9 16.9 16.9h4.2c12.7 4.2 25.4 12.7 33.8 25.4 8.5 12.7 8.5 25.4 4.2 42.3v4.2c-4.2 8.5 0 16.9 8.5 21.2 0 0 4.2 4.2 21.1 12.7 12.7 8.5 21.1 12.7 21.1 12.7 8.5 4.2 16.9 0 21.2-4.2l4.2-4.2c8.5-8.5 21.1-16.9 38.1-16.9 16.9 0 29.6 4.2 38.1 16.9l4.2 4.2c4.2 4.2 16.9 8.5 21.1 4.2 0 0 8.5-4.2 21.2-12.7s21.1-12.7 21.1-12.7c4.2-4.2 8.5-12.7 8.5-21.2v-4.2c-4.2-12.7 0-25.4 4.2-38.1 8.5-12.7 16.9-21.2 33.8-25.4h4.2c8.5 0 12.7-8.5 16.9-16.9v-25.4c-4.2-21.1-4.2-29.6-4.2-29.6z m-169.2 93.1c-38.1 0-67.7-29.6-67.7-67.7s29.6-67.7 67.7-67.7 67.7 29.6 67.7 67.7-29.6 67.7-67.7 67.7z m0 0" p-id="13340"></path></svg>