<?xml version="1.0" standalone="no"?><!DOCTYPE svg PUBLIC "-//W3C//DTD SVG 1.1//EN" "http://www.w3.org/Graphics/SVG/1.1/DTD/svg11.dtd"><svg t="1527403288209" class="icon" style="" viewBox="0 0 1024 1024" version="1.1" xmlns="http://www.w3.org/2000/svg" p-id="6817" xmlns:xlink="http://www.w3.org/1999/xlink" width="200" height="200"><defs><style type="text/css"></style></defs><path d="M982.016 404.48l-408.672-320.48c-34.944-27.648-89.696-27.616-124.576 0l-405.568 320.544c-13.856 10.976-16.224 31.104-5.28 44.96s31.104 16.224 44.96 5.28l13.12-10.368v387.584c0 54.944 56.928 96 107.872 96h640c50.304 0 84.128-38.592 84.128-96v-388.544l14.496 11.36c5.888 4.608 12.8 6.816 19.712 6.816 9.504 0 18.912-4.192 25.216-12.256 10.912-13.888 8.48-34.016-5.408-44.896zM608 797.184v66.816h-192v-179.136c0-37.216 30.048-77.248 96-77.248 65.984 0 96 40.032 96 77.248v112.32z" p-id="6818"></path></svg>