<?xml version="1.0" standalone="no"?><!DOCTYPE svg PUBLIC "-//W3C//DTD SVG 1.1//EN" "http://www.w3.org/Graphics/SVG/1.1/DTD/svg11.dtd"><svg t="1530628811371" class="icon" style="" viewBox="0 0 1024 1024" version="1.1" xmlns="http://www.w3.org/2000/svg" p-id="24327" xmlns:xlink="http://www.w3.org/1999/xlink" width="200" height="200"><defs><style type="text/css"></style></defs><path d="M715.337903 4.037053C700.792551 7.934468 690.072769 18.110227 682.243219 32.589156 678.082698 33.564852 673.986855 35.960712 670.334279 40.347671 622.374287 98.294124 574.387447 156.224587 526.439049 214.214305 533.711555 205.402763 485.870449 223.46165 471.05145 227.432389L316.062402 268.961579C244.493374 288.138442 178.751445 301.024117 119.451115 348.30663 38.216095 413.082414 45.175875 523.087126 69.410419 613.531677 122.394865 811.272322 273.041658 809.950857 425.8086 774.442464L482.56647 986.265721C489.487313 1012.094659 515.474305 1027.57494 540.607664 1020.840477 565.719974 1014.111654 580.485228 987.711842 573.564385 961.882903L516.70218 749.670266C573.471424 732.09408 649.692737 707.798678 666.86841 713.212566L898.920163 786.761848C905.849493 788.962586 911.791007 788.066121 916.585152 785.413598 919.179146 785.159059 921.767349 784.882892 924.377514 784.183501 1010.239297 761.176905 967.460797 509.832805 928.62158 364.967086 889.797619 220.07409 801.199686-18.969543 715.337903 4.037053L715.337903 4.037053ZM625.352756 669.248129C479.22564 708.402772 183.339705 847.758554 121.591175 617.309903 88.783827 494.871214 102.7557 378.701434 241.641715 341.487039L464.347691 281.813152C497.395746 272.957953 544.566956 271.006937 567.828062 242.88712 600.129846 203.882188 632.431631 164.877257 664.706571 125.856332 663.514624 240.549315 704.122959 397.322007 711.066988 423.237475 717.982035 449.044781 760.896988 603.901035 818.891043 702.711989 753.861053 677.081429 684.544554 653.387734 625.352756 669.248129L625.352756 669.248129ZM915.090514 739.420087C913.982505 738.905487 912.926052 738.330703 911.672831 737.947757 906.765187 736.387766 901.726979 734.677273 896.665582 732.880258 872.738093 711.445936 830.788279 646.916452 788.73767 527.534123 819.458898 489.787376 845.845071 437.714351 833.191636 390.49109 820.543998 343.289461 771.635342 311.391625 726.183448 294.078588 695.976721 132.594406 711.874264 51.312756 726.924809 47.279975 745.30121 42.356033 822.186315 136.058778 886.516358 376.225959 948.183738 606.371754 932.639242 725.513315 915.090514 739.420087L915.090514 739.420087Z" p-id="24328"></path></svg>