<?xml version="1.0" standalone="no"?><!DOCTYPE svg PUBLIC "-//W3C//DTD SVG 1.1//EN" "http://www.w3.org/Graphics/SVG/1.1/DTD/svg11.dtd"><svg t="1530770823953" class="icon" style="" viewBox="0 0 1024 1024" version="1.1" xmlns="http://www.w3.org/2000/svg" p-id="6446" xmlns:xlink="http://www.w3.org/1999/xlink" width="200" height="200"><defs><style type="text/css"></style></defs><path d="M926.1 65.3H248.2c-17.7 0-32 14.3-32 32s14.3 32 32 32h645.9v508.8c0 17.7 14.3 32 32 32s32-14.3 32-32V97.3c0-17.7-14.4-32-32-32z" fill="" p-id="6447"></path><path d="M816.2 172.1h-720c-17.7 0-32 14.3-32 32v584c0 17.7 14.3 32 32 32h377.5L573.5 946c6 7.5 15 12 24.6 12.1h0.5c9.4 0 18.4-4.2 24.5-11.4l106.7-126.6h86.5c17.7 0 32-14.3 32-32v-584c-0.1-17.7-14.5-32-32.1-32z m-32 584h-69.3c-9.4 0-18.4 4.2-24.5 11.4l-91 108.1-85.1-107.3c-6.1-7.7-15.3-12.1-25.1-12.1h-361v-520h656v519.9z" fill="" p-id="6448"></path><path d="M381.9 569.2h149.7l41.7 108.4h54L480.8 319.7h-51L292.3 677.6h50.3l39.3-108.4z m53-143.6c8.3-22.6 14.7-45.4 19.3-68.4 5.5 19.4 14 44.1 25.4 74.2l37.4 99.1H395.6l39.3-104.9z" fill="" p-id="6449"></path></svg>