<?xml version="1.0" standalone="no"?><!DOCTYPE svg PUBLIC "-//W3C//DTD SVG 1.1//EN" "http://www.w3.org/Graphics/SVG/1.1/DTD/svg11.dtd"><svg t="1532337234459" class="icon" style="" viewBox="0 0 1024 1024" version="1.1" xmlns="http://www.w3.org/2000/svg" p-id="7318" xmlns:xlink="http://www.w3.org/1999/xlink" width="200" height="200"><defs><style type="text/css"></style></defs><path d="M817.737816 678.482171V165.028178c0-90.99742-74.030758-165.028178-165.028179-165.028178H203.456593C112.459172 0 38.428414 74.030758 38.428414 165.028178v513.453993c0 90.99742 74.030758 165.017939 165.028179 165.017939h449.253044c90.99742 0 165.028178-74.020519 165.028179-165.017939z m-705.964682 0V165.028178c0-50.562086 41.131612-91.683459 91.683459-91.683459h449.253044c50.562086 0 91.693698 41.131612 91.693699 91.683459v513.453993c0 50.551847-41.141851 91.683459-91.693699 91.683459H203.456593c-50.562086 0-91.683459-41.141851-91.683459-91.683459z m813.130092-461.304802v641.804692c0 50.551847-41.141851 91.683459-91.683459 91.683459H255.595544V1024h577.624223c90.99742 0 165.017939-74.020519 165.017939-165.017939v-641.804692h-73.33448z" p-id="7319"></path></svg>