<?xml version="1.0" standalone="no"?><!DOCTYPE svg PUBLIC "-//W3C//DTD SVG 1.1//EN" "http://www.w3.org/Graphics/SVG/1.1/DTD/svg11.dtd"><svg t="1530628782903" class="icon" style="" viewBox="0 0 1024 1024" version="1.1" xmlns="http://www.w3.org/2000/svg" p-id="24219" xmlns:xlink="http://www.w3.org/1999/xlink" width="200" height="200"><defs><style type="text/css"></style></defs><path d="M869.376 316.224l-120.896 0c-37.312 0-67.712-30.336-67.712-67.648 0-104.896-85.376-190.272-190.272-190.272L315.008 58.304c-3.648 0-6.592 2.944-6.592 6.592l0 46.592c0 3.648 2.944 6.592 6.592 6.592l175.488 0c71.936 0 130.432 58.496 130.432 130.432l0 431.424c-34.112-32.192-80-51.968-130.432-51.968l-241.92 0L248.576 64.896c0-3.648-2.944-6.592-6.592-6.592L195.328 58.304c-3.648 0-6.592 2.944-6.592 6.592l0 841.024L131.328 905.92c-3.648 0-6.592 2.944-6.592 6.592l0 46.592c0 3.648 2.944 6.592 6.592 6.592l174.656 0c3.648 0 6.592-2.944 6.592-6.592l0-46.592c0-3.648-2.944-6.592-6.592-6.592L248.576 905.92l0-218.112 241.92 0c71.936 0 130.432 58.496 130.432 130.432l0 0.256c0 0.064 0 0.192 0 0.256 0.256 70.08 57.344 127.04 127.488 127.04l120.896 0c16.512 0 29.888-13.376 29.888-29.888L899.2 346.176C899.264 329.6 885.888 316.224 869.376 316.224zM839.424 885.952l-91.008 0c-37.312 0-67.712-30.336-67.712-67.712L680.704 356.544c19.648 12.352 42.816 19.52 67.712 19.52l91.008 0L839.424 885.952z" p-id="24220"></path></svg>