<?xml version="1.0" standalone="no"?><!DOCTYPE svg PUBLIC "-//W3C//DTD SVG 1.1//EN" "http://www.w3.org/Graphics/SVG/1.1/DTD/svg11.dtd"><svg t="1531375000151" class="icon" style="" viewBox="0 0 1024 1024" version="1.1" xmlns="http://www.w3.org/2000/svg" p-id="18493" xmlns:xlink="http://www.w3.org/1999/xlink" width="400" height="400"><defs><style type="text/css"></style></defs><path d="M511.76563 217.465812a21.483791 21.483791 0 0 0-21.483792 21.483792v295.616971a21.483791 21.483791 0 1 0 42.967583 0V238.949604a21.483791 21.483791 0 0 0-21.483791-21.483792zM511.76563 635.110719a21.483791 21.483791 0 0 0-21.483792 21.483791v7.734165a21.483791 21.483791 0 0 0 42.967583 0v-7.734165a21.483791 21.483791 0 0 0-21.483791-21.483791z" fill="#999999" p-id="18494"></path><path d="M965.503306 678.507978l-351.045153-618.733195a117.731177 117.731177 0 0 0-204.955371 0L58.027954 678.507978a117.731177 117.731177 0 0 0 102.692523 176.16709h26.639901v128.902749a40.389528 40.389528 0 0 0 40.389528 40.389528 38.670825 38.670825 0 0 0 29.647633-12.030924l171.870332-157.261353h433.972588a117.731177 117.731177 0 0 0 102.262847-176.16709zM927.691833 773.466336a74.333919 74.333919 0 0 1-64.451374 37.381797H419.815002a21.483791 21.483791 0 0 0-14.608978 5.585786l-174.878063 160.69876v-143.941403a21.483791 21.483791 0 0 0-21.483791-21.483791H160.720477a74.763594 74.763594 0 0 1-65.310726-111.715716L446.88458 80.828898a74.763594 74.763594 0 0 1 128.902749 0l351.474828 619.162871A73.904243 73.904243 0 0 1 927.691833 773.466336z" fill="#999999" p-id="18495"></path></svg>