<?xml version="1.0" standalone="no"?><!DOCTYPE svg PUBLIC "-//W3C//DTD SVG 1.1//EN" "http://www.w3.org/Graphics/SVG/1.1/DTD/svg11.dtd"><svg t="1531372759256" class="icon" style="" viewBox="0 0 1024 1024" version="1.1" xmlns="http://www.w3.org/2000/svg" p-id="4518" xmlns:xlink="http://www.w3.org/1999/xlink" width="400" height="400"><defs><style type="text/css"></style></defs><path d="M512 904.54c-10.24 0-17.06 6.82-17.06 17.06 0 10.24 6.82 17.06 17.06 17.06 10.24 0 17.06-6.82 17.06-17.06 0-10.24-6.82-17.06-17.06-17.06z m0-85.34c-10.24 0-17.06 6.82-17.06 17.06v17.08c0 10.24 6.82 17.06 17.06 17.06 10.24 0 17.06-6.82 17.06-17.06v-17.08c0-10.24-6.82-17.06-17.06-17.06z m0 153.6c-10.24 0-17.06 6.82-17.06 17.06v17.08c0 10.24 6.82 17.06 17.06 17.06 10.24 0 17.06-6.82 17.06-17.06v-17.08c0-10.24-6.82-17.06-17.06-17.06z m102.4-170.66c-10.24 0-17.06 6.82-17.06 17.06v34.14c0 10.24 6.82 17.06 17.06 17.06 10.24 0 17.06-6.82 17.06-17.06V819.2c0-10.24-6.82-17.06-17.06-17.06z m0 102.4c-10.24 0-17.06 6.82-17.06 17.06v51.2c0 10.24 6.82 17.06 17.06 17.06 10.24 0 17.06-6.82 17.06-17.06v-51.2c0-10.24-6.82-17.06-17.06-17.06zM409.6 921.6c-10.24 0-17.06 6.82-17.06 17.06v51.2c0 10.24 6.82 17.08 17.06 17.08 10.24 0 17.06-6.84 17.06-17.08v-51.2c0-10.24-6.82-17.06-17.06-17.06z m0-119.46c-10.24 0-17.06 6.82-17.06 17.06v51.2c0 10.24 6.82 17.06 17.06 17.06 10.24 0 17.06-6.82 17.06-17.06v-51.2c0-10.24-6.82-17.06-17.06-17.06z m-34.14-426.68c10.24 0 17.08-6.82 17.08-17.06a84.5 84.5 0 0 1 85.32-85.34c10.24 0 17.08-6.82 17.08-17.06 0-10.24-6.84-17.06-17.08-17.06A118.723 118.723 0 0 0 358.4 358.4c0 10.24 6.82 17.06 17.06 17.06zM512 529.06c-10.24 0-17.06 6.84-17.06 17.08 0 10.24 6.82 17.06 17.06 17.06 10.24 0 17.06-6.82 17.06-17.06 0-10.24-6.82-17.08-17.06-17.08zM665.6 512c-10.24 0-17.06 6.82-17.06 17.06 0 10.24 6.82 17.08 17.06 17.08 10.24 0 17.06-6.84 17.06-17.08 0-10.24-6.82-17.06-17.06-17.06z m136.54-34.14c-10.24 0-17.08 6.84-17.08 17.08 0 10.24 6.84 17.06 17.08 17.06 10.24 0 17.06-6.82 17.06-17.06 0-10.24-6.82-17.08-17.06-17.08z m-580.28 0c-10.24 0-17.06 6.84-17.06 17.08 0 10.24 6.82 17.06 17.06 17.06 10.24 0 17.08-6.82 17.08-17.06 0-10.24-6.84-17.08-17.08-17.08zM358.4 512c-10.24 0-17.06 6.82-17.06 17.06 0 10.24 6.82 17.08 17.06 17.08 10.24 0 17.06-6.84 17.06-17.08 0-10.24-6.82-17.06-17.06-17.06z" p-id="4519" fill="#999999"></path><path d="M1024 494.94c0-79.257-160.993-118.661-243.18-132.73-21.442-117.208-121.896-201.34-251.76-208.139V102.4h17.08l17.06-17.06V17.06L546.14 0h-68.28L460.8 17.06v68.28l17.06 17.06h17.08v51.65c-129.966 6.82-230.461 91.075-251.801 208.405C160.932 377.815 0 415.683 0 494.94c0 42.148 48.005 76.247 122.204 101.52C176.148 709.243 332.534 785.08 512 785.08c178.463 0 334.07-74.997 388.854-188.293C975.606 571.474 1024 537.272 1024 494.94zM494.94 34.14h34.12v34.12h-34.12V34.14zM512 187.74c130.806 0 231.158 87.92 238.817 208.24l-51.077 17.04c-121.18 40.96-254.3 40.96-375.48 0l-51.077-17.04c0.164-2.6 0.368-5.201 0.614-7.782 0.41-2.744 0.82-5.488 0.922-7.946C289.75 268.083 386.949 187.74 512 187.74z m341.34 423.24C791.9 694.62 658.78 750.94 512 750.94c-148.48 0-279.9-56.32-341.34-139.96 92.16 23.9 215.04 37.56 341.34 37.56 126.3 0 249.18-13.66 341.34-37.56z m-141.23-8.397l-2.908 0.348-6.43 0.778C643.173 610.714 578.518 614.4 512 614.4a1757.798 1757.798 0 0 1-117.985-3.932C168.878 595.067 34.14 537.436 34.14 494.94c0-29.02 64.84-71.68 204.8-97.28v23.88l73.38 25.6a633.692 633.692 0 0 0 397.66 0l75.08-25.6v-23.88c139.96 27.3 204.8 68.26 204.8 97.28 0 37.069-102.38 85.607-277.75 107.643z" p-id="4520" fill="#999999"></path></svg>